<svg width="18" height="18" viewBox="0 0 18 18" fill="none" xmlns="http://www.w3.org/2000/svg">
<path d="M5.92308 15.7692L1 17L2.23077 13.3077V2.23077C2.23077 1.90434 2.36044 1.5913 2.59125 1.36048C2.82207 1.12967 3.13511 1 3.46154 1H15.7692C16.0956 1 16.4087 1.12967 16.6395 1.36048C16.8703 1.5913 17 1.90434 17 2.23077V14.5385C17 14.8649 16.8703 15.178 16.6395 15.4087C16.4087 15.6395 16.0956 15.7692 15.7692 15.7692H5.92308Z" stroke="#8cc63e" stroke-width="1.91025" stroke-linecap="round" stroke-linejoin="round"/>
<path d="M9.61531 8.6918C9.44538 8.6918 9.30762 8.55404 9.30762 8.38411C9.30762 8.21418 9.44538 8.07642 9.61531 8.07642" stroke="#8cc63e" stroke-width="1.91025" stroke-linecap="round" stroke-linejoin="round"/>
<path d="M9.61539 8.6918C9.78533 8.6918 9.92309 8.55404 9.92309 8.38411C9.92309 8.21418 9.78533 8.07642 9.61539 8.07642" stroke="#8cc63e" stroke-width="1.91025" stroke-linecap="round" stroke-linejoin="round"/>
<path d="M6.23064 8.6918C6.06071 8.6918 5.92295 8.55404 5.92295 8.38411C5.92295 8.21418 6.06071 8.07642 6.23064 8.07642" stroke="#8cc63e" stroke-width="1.91025" stroke-linecap="round" stroke-linejoin="round"/>
<path d="M6.23071 8.6918C6.40064 8.6918 6.5384 8.55404 6.5384 8.38411C6.5384 8.21418 6.40064 8.07642 6.23071 8.07642" stroke="#8cc63e" stroke-width="1.91025" stroke-linecap="round" stroke-linejoin="round"/>
<path d="M12.9997 8.6918C12.8297 8.6918 12.692 8.55404 12.692 8.38411C12.692 8.21418 12.8297 8.07642 12.9997 8.07642" stroke="#8cc63e" stroke-width="1.91025" stroke-linecap="round" stroke-linejoin="round"/>
<path d="M12.9998 8.6918C13.1697 8.6918 13.3075 8.55404 13.3075 8.38411C13.3075 8.21418 13.1697 8.07642 12.9998 8.07642" stroke="#8cc63e" stroke-width="1.91025" stroke-linecap="round" stroke-linejoin="round"/>
</svg>
