<svg width="15" height="16" viewBox="0 0 15 16" fill="none" xmlns="http://www.w3.org/2000/svg">
<g clip-path="url(#clip0_0_968)">
<path d="M14.8477 15.9999H13.1208C13.009 14.2463 12.3409 12.7812 10.9324 11.7248C9.96442 10.9983 8.85968 10.651 7.67208 10.7018C5.20613 10.8073 2.82173 12.5422 2.53897 15.9812H0.847656C0.87396 13.5852 1.8222 11.6674 3.70815 10.2984C6.07152 8.58358 8.63347 8.4006 11.1902 9.80161C13.5483 11.0944 14.7253 13.1979 14.8477 15.9999Z" fill="#139EF2"/>
<path d="M7.86445 -9.41541e-05C9.79118 0.0292881 11.3838 1.67203 11.3549 3.60057C11.326 5.55717 9.70701 7.17587 7.80921 7.14515C5.88249 7.11443 4.28981 5.47036 4.31875 3.54448C4.34768 1.58789 5.96534 -0.0294765 7.86445 -9.41541e-05ZM9.56497 3.59657C9.57549 2.57887 8.84294 1.82161 7.84341 1.8176C6.87018 1.8136 6.13368 2.5348 6.1087 3.5151C6.08371 4.53413 6.80442 5.30875 7.79606 5.32745C8.79691 5.34615 9.55313 4.60491 9.56365 3.59657H9.56497Z" fill="#139EF2"/>
</g>
<defs>
<clipPath id="clip0_0_968">
<rect width="14" height="16" fill="white" transform="translate(0.847656)"/>
</clipPath>
</defs>
</svg>
