<svg width="13" height="10" viewBox="0 0 13 10" fill="none" xmlns="http://www.w3.org/2000/svg">
<g clip-path="url(#clip0_0_96)">
<path d="M13 2.80927C12.8807 2.8864 12.7969 2.93851 12.7142 2.99426C11.0592 4.12471 9.4055 5.25586 7.75319 6.3877C6.85816 7.00052 6.13777 6.99948 5.23818 6.38353L0.279221 2.9901C0.202562 2.93799 0.124381 2.88588 0.0187845 2.81813C0.0116777 2.91193 0.00101662 2.98332 0.00101662 3.05471C0.00101662 4.93069 0.00101662 6.80667 0.00101662 8.68264C0.00101662 9.48671 0.501582 9.99948 1.28898 9.99948C4.76621 10.0016 8.2431 10.0016 11.7196 9.99948C12.4923 9.99791 12.9964 9.4841 12.997 8.69724C12.999 6.81292 13 4.92861 13 3.04429V2.80927Z" fill="#4E4E4E"/>
<path d="M6.49906 0C4.7486 0 2.99865 0 1.24718 0.00260552C0.515112 0.00260552 -0.0281 0.567483 0.00286865 1.28296C0.0216522 1.71548 0.238937 2.0271 0.585678 2.26368C2.09956 3.29547 3.61175 4.33003 5.12225 5.36738C5.33987 5.51676 5.55783 5.66597 5.77613 5.81501C6.25775 6.1433 6.73953 6.1433 7.22148 5.81501C8.95806 4.6248 10.6946 3.43512 12.4312 2.24596C12.9186 1.91193 13.1014 1.40698 12.9445 0.87285C12.7922 0.355915 12.3353 0.00468994 11.7768 0.00312663C10.2711 -0.00208442 8.76582 0.00312663 7.25854 0.00312663L6.49906 0Z" fill="#4E4E4E"/>
</g>
<defs>
<clipPath id="clip0_0_96">
<rect width="13" height="10" fill="white" transform="matrix(-1 0 0 1 13 0)"/>
</clipPath>
</defs>
</svg>
