<svg width="18" height="18" viewBox="0 0 18 18" fill="none" xmlns="http://www.w3.org/2000/svg">
<path d="M2.37074 10.5613C1.90896 10.5693 1.50411 10.4952 1.16097 10.2246C0.385851 9.61467 0.331056 8.55034 1.04979 7.82321C2.22763 6.63156 3.41558 5.44951 4.59981 4.26319C5.68349 3.17755 6.78792 2.11162 7.84447 1.00041C8.4834 0.328678 9.61708 0.339864 10.2581 0.993485C12.5058 3.28622 14.7791 5.55391 17.0613 7.81202C17.8689 8.61107 17.6524 10.108 16.482 10.4654C16.25 10.5362 16.0005 10.5501 15.7308 10.5954C15.7308 10.6897 15.7308 10.7941 15.7308 10.8985C15.7297 12.5141 15.7351 14.1298 15.725 15.7455C15.7191 16.6958 14.9286 17.4784 13.9741 17.4885C13.0878 17.4981 12.201 17.4922 11.3147 17.4917C10.855 17.4917 10.6832 17.3164 10.6827 16.8434C10.6811 15.6448 10.6827 14.4462 10.6821 13.2482C10.6821 13.1507 10.6832 13.0527 10.679 12.9552C10.6582 12.4912 10.3241 12.1631 9.85701 12.1583C9.33406 12.153 8.81111 12.1546 8.28762 12.1578C7.76839 12.161 7.42525 12.503 7.42366 13.0266C7.41993 14.287 7.42259 15.5479 7.42206 16.8082C7.42206 17.3409 7.2731 17.4917 6.74908 17.4917C5.92448 17.4917 5.09882 17.465 4.27582 17.4986C3.23098 17.5412 2.34839 16.6617 2.36488 15.5937C2.38882 14.0228 2.37127 12.4513 2.37127 10.8798C2.37127 10.7839 2.37127 10.6875 2.37127 10.5618L2.37074 10.5613ZM11.6855 16.5147C12.3718 16.5147 13.0251 16.5147 13.6789 16.5147C14.4402 16.5147 14.7487 16.2095 14.7487 15.4552C14.7493 13.7244 14.7487 11.9932 14.7487 10.2624C14.7487 9.68499 14.8892 9.54809 15.476 9.54755C15.609 9.54755 15.742 9.54223 15.875 9.54862C16.1654 9.563 16.3979 9.48097 16.5224 9.19331C16.6501 8.89766 16.5123 8.68458 16.3128 8.48535C14.0555 6.22618 11.7999 3.96647 9.5426 1.70783C9.19308 1.35838 8.91644 1.36158 8.56479 1.71369C7.37365 2.90534 6.18357 4.09858 4.99242 5.29076C3.9146 6.37001 2.83677 7.44979 1.75787 8.52797C1.56636 8.71921 1.47113 8.93388 1.5871 9.19864C1.70042 9.45806 1.91215 9.55714 2.18613 9.54915C2.34573 9.54436 2.50533 9.54809 2.66493 9.54862C3.20651 9.54862 3.37674 9.71961 3.37674 10.2651C3.37674 12.0406 3.38951 13.8161 3.36983 15.591C3.36345 16.1844 3.81245 16.5259 4.30136 16.5174C4.74451 16.5094 5.18767 16.5158 5.63082 16.5158C5.88458 16.5158 6.13888 16.5158 6.41552 16.5158C6.41552 16.3837 6.41552 16.2878 6.41552 16.1919C6.41552 15.118 6.41126 14.0435 6.41765 12.9696C6.42297 12.0741 7.0853 11.2847 7.97268 11.1984C8.6398 11.1334 9.31704 11.1643 9.98948 11.1632C10.1188 11.1632 10.2523 11.1995 10.3773 11.2389C11.1849 11.493 11.6802 12.1583 11.6844 13.0064C11.6897 14.1597 11.6855 15.3135 11.6855 16.5158V16.5147Z" fill="white"/>
</svg>
