<svg width="20" height="18" viewBox="0 0 20 18" fill="none" xmlns="http://www.w3.org/2000/svg">
<path d="M6.39636 3.26729C6.41107 3.01783 6.40889 2.81293 6.43722 2.61192C6.56578 1.70932 7.14595 1.17255 8.04046 1.16308C9.34789 1.14916 10.6559 1.14749 11.9633 1.16308C12.9341 1.17533 13.5633 1.84128 13.5872 2.83631C13.5905 2.96605 13.5872 3.09579 13.5872 3.26673H13.8869C15.2945 3.26673 16.7017 3.26673 18.1093 3.26673C18.5435 3.26673 18.7178 3.44157 18.7178 3.88925C18.7189 7.66612 18.7211 11.443 18.7167 15.2199C18.7156 16.196 18.0358 16.843 17.0269 16.8452C15.4378 16.8491 13.8487 16.8463 12.2597 16.8463C9.17248 16.8463 6.08476 16.8463 2.99758 16.8463C2.33406 16.8463 1.77894 16.6214 1.46734 15.9899C1.35675 15.7667 1.28866 15.4955 1.28811 15.246C1.27722 11.4514 1.27994 7.65554 1.28158 3.86029C1.28158 3.45326 1.46788 3.26784 1.8672 3.26729C3.27487 3.26562 4.68199 3.26673 6.08966 3.26673C6.18717 3.26673 6.28523 3.26673 6.39636 3.26673V3.26729ZM2.36293 7.19394C2.34659 7.19617 2.3297 7.19784 2.31336 7.20007C2.31336 7.26466 2.31336 7.32925 2.31336 7.39384C2.31336 9.98359 2.31336 12.5733 2.31336 15.1625C2.31336 15.6108 2.49803 15.7978 2.94474 15.7978C7.64932 15.799 12.3544 15.799 17.059 15.7978C17.5019 15.7978 17.6849 15.608 17.6849 15.157C17.6855 12.5767 17.6849 9.99639 17.6849 7.41611C17.6849 7.34206 17.6762 7.268 17.6713 7.1945C17.3968 7.92282 17.1614 8.64946 16.9234 9.37499C16.6581 10.1835 16.1465 10.5616 15.3201 10.5621C14.5024 10.5627 13.6853 10.5621 12.8676 10.5621H12.5598C12.5598 10.7347 12.562 10.8723 12.5598 11.0098C12.5522 11.3985 12.3484 11.6178 11.972 11.619C10.6553 11.6228 9.33808 11.6228 8.02084 11.619C7.65694 11.6178 7.44939 11.4007 7.43904 11.0321C7.43468 10.8789 7.43849 10.7258 7.43849 10.5621C6.5064 10.5621 5.6168 10.5621 4.7272 10.5621C3.82889 10.5621 3.34242 10.1968 3.0575 9.31652C2.82816 8.60825 2.59446 7.90166 2.36293 7.1945V7.19394ZM17.4877 4.33192H2.54597C2.54107 4.36644 2.53126 4.38648 2.53671 4.40208C3.04824 5.98009 3.5576 7.55921 4.07621 9.135C4.15793 9.3839 4.3377 9.52087 4.61444 9.51586C5.06823 9.50751 5.52256 9.51363 5.97635 9.51419C6.45519 9.51419 6.9335 9.51419 7.43904 9.51419C7.43904 9.33935 7.43413 9.19291 7.44013 9.04758C7.45375 8.69567 7.6455 8.49522 7.98544 8.49411C9.32937 8.49077 10.6733 8.49077 12.0172 8.49411C12.355 8.49522 12.5467 8.6979 12.5598 9.05037C12.5653 9.19569 12.5609 9.34158 12.5609 9.50194C12.6595 9.50695 12.7303 9.51363 12.8006 9.51363C13.645 9.51419 14.4894 9.51531 15.3338 9.51363C15.6982 9.51252 15.8295 9.41229 15.9472 9.05315C16.2887 8.01079 16.6297 6.96844 16.9702 5.92552C17.1413 5.40211 17.3107 4.87815 17.4877 4.33247V4.33192ZM12.5614 3.25337C12.5614 3.08521 12.5674 2.92986 12.5604 2.77562C12.5446 2.43708 12.3414 2.21268 12.0118 2.21101C10.67 2.20377 9.32828 2.20433 7.98652 2.21101C7.67819 2.21268 7.46954 2.41759 7.44231 2.72161C7.42705 2.89366 7.43958 3.0685 7.43958 3.25337H12.5614ZM8.48117 10.5437H11.5084V9.53591H8.48117V10.5437Z" fill="white"/>
</svg>
