<svg width="10" height="13" viewBox="0 0 10 13" fill="none" xmlns="http://www.w3.org/2000/svg">
<g clip-path="url(#clip0_0_99)">
<path d="M1.12881 4.8743C1.12881 4.40006 1.1007 3.96035 1.1335 3.52216C1.19986 2.56623 1.63607 1.67056 2.35388 1.01635C3.07169 0.362145 4.01751 -0.00176907 5 -0.00176907C5.98249 -0.00176907 6.92831 0.362145 7.64612 1.01635C8.36392 1.67056 8.80013 2.56623 8.8665 3.52216C8.8993 3.95882 8.87118 4.40006 8.87118 4.8743C9.13933 4.8743 9.36999 4.8743 9.60012 4.8743C9.90263 4.87735 9.99687 4.96113 9.99687 5.24547C9.99687 7.45352 9.99687 9.66208 9.99687 11.8711C9.99687 12.5348 9.52827 12.9953 8.8514 12.9963C6.28276 13.0021 3.71412 13.0021 1.14547 12.9963C0.468602 12.9963 0.0031228 12.5348 -1.22027e-06 11.8706C-0.00520793 9.66224 -0.00520793 7.45369 -1.22027e-06 5.24496C-1.22027e-06 4.96925 0.0937195 4.87887 0.371237 4.87481C0.606059 4.87075 0.838799 4.8743 1.12881 4.8743ZM7.20296 4.86059C7.20296 4.42596 7.23992 3.98675 7.19567 3.55618C7.14472 3.05124 6.91157 2.58036 6.53777 2.22745C6.16396 1.87454 5.6738 1.66255 5.15464 1.62925C4.06123 1.56223 3.05998 2.2609 2.84755 3.31296C2.74654 3.80802 2.7783 4.33253 2.74914 4.85958L7.20296 4.86059ZM5.00104 10.8262C5.14839 10.8262 5.29574 10.8262 5.44309 10.8262C5.76851 10.8206 5.85702 10.719 5.81953 10.3997C5.77267 10.0051 5.7154 9.61113 5.68676 9.21559C5.68482 9.08854 5.72951 8.96501 5.81277 8.86727C6.2116 8.42045 6.20275 7.7624 5.77319 7.35315C5.56578 7.15696 5.28818 7.04723 4.99922 7.04723C4.71026 7.04723 4.43265 7.15696 4.22524 7.35315C3.79621 7.76342 3.78892 8.41943 4.18931 8.86727C4.27208 8.96552 4.31587 9.0895 4.31271 9.21661C4.2846 9.62281 4.22264 10.0224 4.17786 10.4256C4.14714 10.7038 4.23826 10.814 4.50692 10.8236C4.67145 10.8302 4.83651 10.8257 5.00104 10.8262Z" fill="#4E4E4E"/>
</g>
<defs>
<clipPath id="clip0_0_99">
<rect width="10" height="13" fill="white"/>
</clipPath>
</defs>
</svg>
