<svg width="78" height="78" viewBox="0 0 78 78" fill="none" xmlns="http://www.w3.org/2000/svg">
<g filter="url(#filter0_d_643_3293)">
<mask id="mask0_643_3293" style="mask-type:luminance" maskUnits="userSpaceOnUse" x="4" y="0" width="70" height="70">
<path d="M4 69.9965V23.4437L17.2193 15.4249V26.0708L12.8296 28.7438V60.7275H65.1905V52.6101H73.9966V70H4V69.9965ZM65.1905 36.8612V28.7438L39.0101 12.8752L30.4621 18.0485V42.2071H56.3642V51.4796H21.6358V5.34588L30.4655 0V7.40605L39.0134 2.23273L74 23.4472V36.8647H65.1938L65.1905 36.8612ZM36.6291 20.0347H41.3944V25.039H36.6291V20.0347Z" fill="white"/>
</mask>
<g mask="url(#mask0_643_3293)">
<path d="M-18.5151 30.7547L-18.4682 30.73L22.7055 102.47L22.6586 102.494L-18.5151 30.7547Z" fill="#35A711"/>
<path d="M-18.6326 30.8286L-18.1899 30.5575L22.9871 102.297L22.5646 102.568L-18.6326 30.8286Z" fill="#36A711"/>
<path d="M-18.3271 30.6561L-17.908 30.3849L23.2657 102.1L22.8465 102.371L-18.3271 30.6561Z" fill="#36A711"/>
<path d="M-18.0491 30.4588L-17.6299 30.1912L23.5472 101.931L23.1246 102.199L-18.0491 30.4588Z" fill="#37A812"/>
<path d="M-17.7673 30.2862L-17.3482 30.0186L23.8255 101.758L23.4064 102.026L-17.7673 30.2862Z" fill="#37A812"/>
<path d="M-17.489 30.1172L-17.0665 29.8461L24.1072 101.561L23.6847 101.832L-17.489 30.1172Z" fill="#38A812"/>
<path d="M-17.2074 29.92L-16.7882 29.6489L24.409 101.389L23.9663 101.66L-17.2074 29.92Z" fill="#38A812"/>
<path d="M-16.929 29.7474L-16.4829 29.4798L24.6908 101.219L24.2716 101.487L-16.929 29.7474Z" fill="#38A813"/>
<path d="M-16.6237 29.5784L-16.2045 29.3073L24.9726 101.047L24.5501 101.29L-16.6237 29.5784Z" fill="#39A813"/>
<path d="M-16.342 29.3812L-15.9229 29.11L25.2508 100.85L24.8317 101.121L-16.342 29.3812Z" fill="#39A913"/>
<path d="M-16.0637 29.2086L-15.6445 28.9375L25.5325 100.677L25.11 100.948L-16.0637 29.2086Z" fill="#3AA913"/>
<path d="M-15.7817 29.036L-15.3626 28.7684L25.8111 100.508L25.392 100.776L-15.7817 29.036Z" fill="#3AA913"/>
<path d="M-15.5037 28.8424L-15.0811 28.5712L26.116 100.311L25.67 100.579L-15.5037 28.8424Z" fill="#3BA914"/>
<path d="M-15.2219 28.6698L-14.7793 28.3987L26.3944 100.138L25.9518 100.41L-15.2219 28.6698Z" fill="#3BA914"/>
<path d="M-14.9438 28.4973L-14.4978 28.2261L26.6759 99.9658L26.2567 100.237L-14.9438 28.4973Z" fill="#3BA914"/>
<path d="M-14.6385 28.3001L-14.2194 28.0324L26.9577 99.7721L26.5352 100.04L-14.6385 28.3001Z" fill="#3CA914"/>
<path d="M-14.3601 28.131L-13.9376 27.8599L27.2361 99.5996L26.817 99.8707L-14.3601 28.131Z" fill="#3CAA15"/>
<path d="M-14.0786 27.9585L-13.6594 27.6873L27.5176 99.427L27.0951 99.6982L-14.0786 27.9585Z" fill="#3DAA15"/>
<path d="M-13.7969 27.7612L-13.3777 27.4936L27.796 99.2297L27.3768 99.5009L-13.7969 27.7612Z" fill="#3DAA15"/>
<path d="M-13.5186 27.5887L-13.0725 27.321L28.1012 99.0607L27.6551 99.3283L-13.5186 27.5887Z" fill="#3EAA15"/>
<path d="M-13.2372 27.4196L-12.7945 27.1485L28.3792 98.8882L27.96 99.1593L-13.2372 27.4196Z" fill="#3EAA16"/>
<path d="M-12.9349 27.2224L-12.5124 26.9513L28.6613 98.691L28.2421 98.9621L-12.9349 27.2224Z" fill="#3EAA16"/>
<path d="M-12.6533 27.0498L-12.2341 26.7822L28.9396 98.5184L28.5204 98.7895L-12.6533 27.0498Z" fill="#3FAB16"/>
<path d="M-12.3752 26.8773L-11.9527 26.6097L29.221 98.3494L28.8018 98.617L-12.3752 26.8773Z" fill="#3FAB16"/>
<path d="M-12.0933 26.7083L-11.6741 26.4371L29.503 98.1522L29.0804 98.4233L-12.0933 26.7083Z" fill="#40AB16"/>
<path d="M-11.8115 26.5111L-11.3923 26.2399L29.8048 97.9796L29.3622 98.2508L-11.8115 26.5111Z" fill="#40AB17"/>
<path d="M-11.5332 26.3385L-11.0872 26.0708L30.0865 97.807L29.6405 98.0782L-11.5332 26.3385Z" fill="#41AB17"/>
<path d="M-11.228 26.166L-10.8088 25.8983L30.3648 97.6133L29.9457 97.881L-11.228 26.166Z" fill="#41AB17"/>
<path d="M-10.9497 25.9722L-10.5272 25.7011L30.6465 97.4408L30.2274 97.7119L-10.9497 25.9722Z" fill="#42AB17"/>
<path d="M-10.6678 25.7997L-10.2487 25.5285L30.925 97.2682L30.5058 97.5394L-10.6678 25.7997Z" fill="#42AC18"/>
<path d="M-10.3896 25.6271L-9.96711 25.3594L31.2066 97.0745L30.7874 97.3421L-10.3896 25.6271Z" fill="#42AC18"/>
<path d="M-10.1079 25.4334L-9.68873 25.1622L31.5118 96.9019L31.0658 97.1695L-10.1079 25.4334Z" fill="#43AC18"/>
<path d="M-9.82593 25.2609L-9.38327 24.9897L31.7904 96.7294L31.3478 97.0006L-9.82593 25.2609Z" fill="#43AC18"/>
<path d="M-9.54785 25.0883L-9.1052 24.8171L32.0719 96.5321L31.6493 96.8033L-9.54785 25.0883Z" fill="#44AC18"/>
<path d="M-9.24292 24.8911L-8.82374 24.6234L32.35 96.3631L31.9308 96.6308L-9.24292 24.8911Z" fill="#44AC19"/>
<path d="M-8.96472 24.7221L-8.54219 24.4509L32.6315 96.1906L32.2123 96.4583L-8.96472 24.7221Z" fill="#45AD19"/>
<path d="M-8.68274 24.5495L-8.26356 24.2784L32.9101 95.9934L32.491 96.2646L-8.68274 24.5495Z" fill="#45AD19"/>
<path d="M-8.40454 24.3523L-7.98201 24.0846L33.1917 95.8208L32.7725 96.092L-8.40454 24.3523Z" fill="#45AD19"/>
<path d="M-8.12305 24.1797L-7.70387 23.912L33.4967 95.6517L33.0507 95.9194L-8.12305 24.1797Z" fill="#46AD1A"/>
<path d="M-7.84094 24.0107L-7.39829 23.7395L33.7754 95.4546L33.3562 95.7257L-7.84094 24.0107Z" fill="#46AD1A"/>
<path d="M-7.53943 23.8135L-7.12025 23.5423L34.0568 95.282L33.6343 95.5531L-7.53943 23.8135Z" fill="#47AD1A"/>
<path d="M-7.25745 23.6409L-6.83826 23.3732L34.3354 95.1094L33.9162 95.3806L-7.25745 23.6409Z" fill="#47AE1A"/>
<path d="M-6.97925 23.4684L-6.55671 23.2007L34.617 94.9157L34.1945 95.1834L-6.97925 23.4684Z" fill="#48AE1A"/>
<path d="M-6.69775 23.2746L-6.27857 23.0035L34.8951 94.7432L34.4759 95.0143L-6.69775 23.2746Z" fill="#48AE1B"/>
<path d="M-6.41943 23.1021L-5.9969 22.8309L35.2003 94.5706L34.7576 94.8418L-6.41943 23.1021Z" fill="#48AE1B"/>
<path d="M-6.13745 22.9295L-5.69479 22.6618L35.4823 94.3734L35.0362 94.6445L-6.13745 22.9295Z" fill="#49AE1B"/>
<path d="M-5.83582 22.7323L-5.41328 22.4647L35.7604 94.2043L35.3412 94.472L-5.83582 22.7323Z" fill="#49AE1B"/>
<path d="M-5.55396 22.5633L-5.13477 22.2921L36.0423 94.0318L35.6198 94.303L-5.55396 22.5633Z" fill="#4AAE1C"/>
<path d="M-5.27222 22.3907L-4.85304 22.1196L36.3207 93.8346L35.9015 94.1058L-5.27222 22.3907Z" fill="#4AAF1C"/>
<path d="M-4.99402 22.1935L-4.57148 21.9258L36.6022 93.6655L36.1797 93.9332L-4.99402 22.1935Z" fill="#4BAF1C"/>
<path d="M-4.71204 22.0209L-4.29285 21.7533L36.9043 93.493L36.4617 93.7606L-4.71204 22.0209Z" fill="#4BAF1C"/>
<path d="M-4.43384 21.8519L-3.98783 21.5807L37.1859 93.2958L36.7432 93.567L-4.43384 21.8519Z" fill="#4BAF1D"/>
<path d="M-4.1521 21.6547L-3.70944 21.3835L37.4643 93.1232L37.0451 93.3944L-4.1521 21.6547Z" fill="#4CAF1D"/>
<path d="M-3.85059 21.4821L-3.42805 21.2144L37.7457 92.9541L37.3265 93.2218L-3.85059 21.4821Z" fill="#4CAF1D"/>
<path d="M-3.56873 21.3131L-3.14954 21.0419L38.0275 92.757L37.605 93.0246L-3.56873 21.3131Z" fill="#4DB01D"/>
<path d="M-3.28735 21.1159L-2.86817 20.8447L38.3055 92.5844L37.8863 92.8556L-3.28735 21.1159Z" fill="#4DB01D"/>
<path d="M-3.00891 20.9433L-2.58638 20.6722L38.5873 92.4119L38.1648 92.683L-3.00891 20.9433Z" fill="#4EB01E"/>
<path d="M-2.72705 20.7707L-2.30787 20.5031L38.8893 92.2181L38.4467 92.4857L-2.72705 20.7707Z" fill="#4EB01E"/>
<path d="M-2.44873 20.577L-2.00272 20.3059L39.171 92.0456L38.7518 92.3132L-2.44873 20.577Z" fill="#4FB01E"/>
<path d="M-2.14355 20.4045L-1.72437 20.1334L39.4493 91.8731L39.0301 92.1442L-2.14355 20.4045Z" fill="#4FB01E"/>
<path d="M-1.86523 20.232L-1.4427 19.9608L39.731 91.6758L39.3118 91.947L-1.86523 20.232Z" fill="#4FB01F"/>
<path d="M-1.58362 20.0347L-1.16444 19.7671L40.0126 91.5067L39.5901 91.7744L-1.58362 20.0347Z" fill="#50B11F"/>
<path d="M-1.30176 19.8657L-0.882576 19.5945L40.2911 91.3342L39.8719 91.6054L-1.30176 19.8657Z" fill="#50B11F"/>
<path d="M-1.02344 19.6931L-0.600902 19.422L40.5963 91.137L40.1503 91.4082L-1.02344 19.6931Z" fill="#51B11F"/>
<path d="M-0.741699 19.4959L-0.299043 19.2282L40.8747 90.9644L40.432 91.2356L-0.741699 19.4959Z" fill="#51B11F"/>
<path d="M-0.439941 19.3233L-0.0174068 19.0557L41.1563 90.7954L40.7371 91.063L-0.439941 19.3233Z" fill="#52B120"/>
<path d="M-0.158203 19.1543L0.260978 18.8832L41.4347 90.5982L41.0155 90.8694L-0.158203 19.1543Z" fill="#52B120"/>
<path d="M0.120117 18.9571L0.542653 18.6859L41.7164 90.4256L41.2972 90.6968L0.120117 18.9571Z" fill="#52B220"/>
<path d="M0.401855 18.7846L0.821037 18.5169L41.9981 90.2531L41.5756 90.5242L0.401855 18.7846Z" fill="#53B220"/>
<path d="M0.683472 18.612L1.10265 18.3443L42.2764 90.0594L41.8572 90.327L0.683472 18.612Z" fill="#53B221"/>
<path d="M0.961792 18.4183L1.40445 18.1471L42.5815 89.8868L42.1355 90.158L0.961792 18.4183Z" fill="#54B221"/>
<path d="M1.24329 18.2457L1.68594 17.9746L42.8596 89.7143L42.4405 89.9854L1.24329 18.2457Z" fill="#54B221"/>
<path d="M1.54541 18.0732L1.96795 17.8055L43.1417 89.5206L42.7191 89.7882L1.54541 18.0732Z" fill="#55B221"/>
<path d="M1.8269 17.8794L2.24609 17.6083L43.4198 89.348L43.0006 89.6156L1.8269 17.8794Z" fill="#55B221"/>
<path d="M2.1051 17.7069L2.52764 17.4357L43.7013 89.1754L43.2822 89.4466L2.1051 17.7069Z" fill="#55B322"/>
<path d="M2.38708 17.5344L2.80627 17.2632L43.9833 88.9782L43.5608 89.2494L2.38708 17.5344Z" fill="#56B322"/>
<path d="M2.66858 17.3371L3.08776 17.0695L44.2849 88.8091L43.8423 89.0768L2.66858 17.3371Z" fill="#56B322"/>
<path d="M2.94678 17.1681L3.38943 16.8969L44.5665 88.6366L44.144 88.9042L2.94678 17.1681Z" fill="#57B322"/>
<path d="M3.2522 16.9955L3.67138 16.7244L44.8451 88.4394L44.4259 88.7106L3.2522 16.9955Z" fill="#57B323"/>
<path d="M3.53027 16.7984L3.95281 16.5272L45.1265 88.2669L44.704 88.5381L3.53027 16.7984Z" fill="#58B323"/>
<path d="M3.81226 16.6258L4.23144 16.3581L45.4051 88.0978L44.986 88.3655L3.81226 16.6258Z" fill="#58B423"/>
<path d="M4.09058 16.4568L4.51311 16.1856L45.6868 87.9253L45.2676 88.1683L4.09058 16.4568Z" fill="#58B423"/>
<path d="M4.37207 16.2595L4.79125 15.9883L45.9884 87.728L45.5458 87.9992L4.37207 16.2595Z" fill="#59B423"/>
<path d="M4.65393 16.087L5.09659 15.8158L46.2703 87.5555L45.8276 87.8266L4.65393 16.087Z" fill="#59B424"/>
<path d="M4.93225 15.9144L5.37491 15.6467L46.552 87.3864L46.1294 87.6541L4.93225 15.9144Z" fill="#5AB424"/>
<path d="M5.2373 15.7207L5.65649 15.4495L46.8302 87.1892L46.411 87.4604L5.2373 15.7207Z" fill="#5AB424"/>
<path d="M5.51587 15.5481L5.9384 15.277L47.1121 87.0167L46.6896 87.2878L5.51587 15.5481Z" fill="#5AB424"/>
<path d="M5.79761 15.3756L6.21679 15.1079L47.3905 86.8441L46.9713 87.1152L5.79761 15.3756Z" fill="#5BB424"/>
<path d="M6.07568 15.1784L6.49822 14.9107L47.6719 86.6504L47.2527 86.9181L6.07568 15.1784Z" fill="#5BB525"/>
<path d="M6.35742 15.0093L6.80008 14.7382L47.9738 86.4778L47.5311 86.749L6.35742 15.0093Z" fill="#5CB525"/>
<path d="M6.63599 14.8367L7.082 14.5656L48.2557 86.3053L47.8365 86.5764L6.63599 14.8367Z" fill="#5CB525"/>
<path d="M6.94092 14.6396L7.3601 14.3719L48.5372 86.1081L48.1146 86.3792L6.94092 14.6396Z" fill="#5CB525"/>
<path d="M7.2229 14.467L7.64208 14.1993L48.8158 85.939L48.3966 86.2067L7.2229 14.467Z" fill="#5DB525"/>
<path d="M7.50098 14.298L7.92351 14.0268L49.0972 85.7665L48.6747 86.0377L7.50098 14.298Z" fill="#5DB526"/>
<path d="M7.78247 14.1007L8.20165 13.8295L49.3754 85.5692L48.9562 85.8404L7.78247 14.1007Z" fill="#5DB526"/>
<path d="M8.06091 13.9282L8.48345 13.6605L49.6806 85.4002L49.238 85.6679L8.06091 13.9282Z" fill="#5EB626"/>
<path d="M8.34265 13.7557L8.78531 13.488L49.959 85.2277L49.5398 85.4953L8.34265 13.7557Z" fill="#5EB626"/>
<path d="M8.64429 13.5866L9.06682 13.3154L50.2405 85.0305L49.8214 85.3016L8.64429 13.5866Z" fill="#5FB626"/>
<path d="M8.92627 13.3894L9.34545 13.1182L50.5225 84.8579L50.1 85.1291L8.92627 13.3894Z" fill="#5FB627"/>
<path d="M9.20789 13.2168L9.62707 12.9491L50.8008 84.6888L50.3816 84.9565L9.20789 13.2168Z" fill="#5FB627"/>
<path d="M9.48608 13.0478L9.90527 12.7766L51.0823 84.4916L50.6598 84.7593L9.48608 13.0478Z" fill="#60B627"/>
<path d="M9.76794 12.8505L10.1871 12.5793L51.3843 84.319L50.9417 84.5902L9.76794 12.8505Z" fill="#60B627"/>
<path d="M10.0464 12.678L10.4924 12.4068L51.6661 84.1465L51.2234 84.4177L10.0464 12.678Z" fill="#61B727"/>
<path d="M10.3278 12.5054L10.7704 12.2378L51.9441 83.9528L51.5249 84.2205L10.3278 12.5054Z" fill="#61B728"/>
<path d="M10.6299 12.3117L11.0524 12.0406L52.2261 83.7802L51.8069 84.0479L10.6299 12.3117Z" fill="#61B728"/>
<path d="M10.9114 12.1392L11.3306 11.868L52.5076 83.6077L52.0851 83.8789L10.9114 12.1392Z" fill="#62B728"/>
<path d="M11.193 11.9666L11.6122 11.6955L52.7859 83.4105L52.3667 83.6817L11.193 11.9666Z" fill="#62B728"/>
<path d="M11.4714 11.7694L11.8906 11.5017L53.0677 83.2414L52.6451 83.5091L11.4714 11.7694Z" fill="#62B728"/>
<path d="M11.7532 11.6003L12.1958 11.3292L53.3695 83.0689L52.9269 83.3365L11.7532 11.6003Z" fill="#63B729"/>
<path d="M12.0315 11.4278L12.4775 11.1566L53.6512 82.8717L53.2287 83.1429L12.0315 11.4278Z" fill="#63B729"/>
<path d="M12.3367 11.2306L12.7559 10.9629L53.9296 82.6991L53.5104 82.9703L12.3367 11.2306Z" fill="#64B829"/>
<path d="M12.6151 11.058L13.0376 10.7904L54.2114 82.5301L53.7922 82.7977L12.6151 11.058Z" fill="#64B829"/>
<path d="M12.8967 10.889L13.3159 10.6178L54.493 82.3329L54.0704 82.604L12.8967 10.889Z" fill="#64B829"/>
<path d="M13.1783 10.6918L13.5975 10.4206L54.7712 82.1603L54.352 82.4315L13.1783 10.6918Z" fill="#65B82A"/>
<path d="M13.4568 10.5192L13.876 10.2516L55.0765 81.9878L54.6305 82.2589L13.4568 10.5192Z" fill="#65B82A"/>
<path d="M13.7382 10.3466L14.1808 10.0789L55.3545 81.794L54.9119 82.0616L13.7382 10.3466Z" fill="#66B82A"/>
<path d="M14.0403 10.1529L14.4628 9.88171L55.6365 81.6214L55.214 81.8926L14.0403 10.1529Z" fill="#66B82A"/>
<path d="M14.322 9.98036L14.7412 9.7092L55.9149 81.4489L55.4957 81.72L14.322 9.98036Z" fill="#66B92A"/>
<path d="M14.6001 9.80784L15.0226 9.54019L56.1963 81.2552L55.7772 81.5229L14.6001 9.80784Z" fill="#67B92B"/>
<path d="M14.8821 9.61412L15.3013 9.34296L56.4783 81.0826L56.0558 81.3503L14.8821 9.61412Z" fill="#67B92B"/>
<path d="M15.1604 9.44161L15.5829 9.17044L56.7801 80.9101L56.3375 81.1813L15.1604 9.44161Z" fill="#67B92B"/>
<path d="M15.4418 9.26903L15.8844 8.99786L57.0615 80.7129L56.6155 80.9841L15.4418 9.26903Z" fill="#68B92B"/>
<path d="M15.7239 9.07178L16.1665 8.80414L57.3402 80.5438L56.9211 80.8115L15.7239 9.07178Z" fill="#68B92B"/>
<path d="M16.0254 8.90273L16.4479 8.63156L57.6216 80.3713L57.1991 80.6389L16.0254 8.90273Z" fill="#69B92C"/>
<path d="M16.3071 8.73021L16.7263 8.45905L57.9 80.1741L57.4808 80.4453L16.3071 8.73021Z" fill="#69BA2C"/>
<path d="M16.5852 8.53304L17.0077 8.26187L58.1814 80.0016L57.7623 80.2727L16.5852 8.53304Z" fill="#69BA2C"/>
<path d="M16.8672 8.36045L17.2864 8.0928L58.4601 79.8325L58.0409 80.1002L16.8672 8.36045Z" fill="#6ABA2C"/>
<path d="M17.1455 8.19139L17.568 7.92023L58.7652 79.6353L58.3226 79.9029L17.1455 8.19139Z" fill="#6ABA2C"/>
<path d="M17.427 7.99416L17.8697 7.72299L59.0467 79.4627L58.6242 79.7339L17.427 7.99416Z" fill="#6BBA2D"/>
<path d="M17.7324 7.82158L18.1516 7.55042L59.3253 79.2901L58.9061 79.5613L17.7324 7.82158Z" fill="#6BBA2D"/>
<path d="M18.0105 7.64905L18.433 7.38141L59.6067 79.0965L59.1842 79.3641L18.0105 7.64905Z" fill="#6BBA2D"/>
<path d="M18.2925 7.45534L18.7117 7.18417L59.8854 78.9239L59.4662 79.195L18.2925 7.45534Z" fill="#6CBB2D"/>
<path d="M18.5708 7.28283L18.9933 7.01166L60.167 78.7513L59.7479 79.0225L18.5708 7.28283Z" fill="#6CBB2D"/>
<path d="M18.8522 7.11018L19.2714 6.84253L60.4685 78.554L60.0259 78.8252L18.8522 7.11018Z" fill="#6CBB2E"/>
<path d="M19.1306 6.91306L19.5766 6.64542L60.7503 78.3851L60.3077 78.6527L19.1306 6.91306Z" fill="#6DBB2E"/>
<path d="M19.4359 6.74395L19.8551 6.47278L61.0322 78.2125L60.6096 78.4836L19.4359 6.74395Z" fill="#6DBB2E"/>
<path d="M19.7174 6.57143L20.1366 6.30026L61.3103 78.0153L60.8911 78.2865L19.7174 6.57143Z" fill="#6EBB2E"/>
<path d="M19.9961 6.37418L20.4153 6.10654L61.5923 77.8427L61.1698 78.1139L19.9961 6.37418Z" fill="#6EBB2E"/>
<path d="M20.2775 6.20161L20.6966 5.93396L61.8703 77.6736L61.4512 77.9413L20.2775 6.20161Z" fill="#6EBB2F"/>
<path d="M20.5559 6.03261L20.9784 5.76144L62.1521 77.4765L61.733 77.7476L20.5559 6.03261Z" fill="#6FBC2F"/>
<path d="M20.8379 5.83544L21.2805 5.56427L62.4543 77.304L62.0116 77.5751L20.8379 5.83544Z" fill="#6FBC2F"/>
<path d="M21.1162 5.66285L21.5622 5.3952L62.7359 77.1349L62.3167 77.4025L21.1162 5.66285Z" fill="#70BC2F"/>
<path d="M21.421 5.49021L21.8402 5.22256L63.0173 76.9376L62.5947 77.2053L21.421 5.49021Z" fill="#70BC2F"/>
<path d="M21.7028 5.29656L22.1219 5.02539L63.2956 76.7651L62.8765 77.0363L21.7028 5.29656Z" fill="#70BC30"/>
<path d="M21.9812 5.12404L22.4004 4.85287L63.5774 76.5926L63.1549 76.8637L21.9812 5.12404Z" fill="#71BC30"/>
<path d="M22.2627 4.95145L22.6819 4.68381L63.8556 76.3988L63.4364 76.6665L22.2627 4.95145Z" fill="#71BC30"/>
<path d="M22.541 4.75774L22.9636 4.48657L64.1607 76.2263L63.7147 76.4939L22.541 4.75774Z" fill="#71BD30"/>
<path d="M22.823 4.58516L23.2657 4.314L64.4394 76.0537L64.0202 76.3249L22.823 4.58516Z" fill="#72BD30"/>
<path d="M23.1245 4.41271L23.547 4.14154L64.7208 75.8566L64.3016 76.1277L23.1245 4.41271Z" fill="#72BD31"/>
<path d="M23.4065 4.21546L23.8257 3.94781L65.0027 75.6875L64.5802 75.9551L23.4065 4.21546Z" fill="#73BD31"/>
<path d="M23.6849 4.04641L24.1075 3.77524L65.2812 75.5149L64.862 75.7826L23.6849 4.04641Z" fill="#73BD31"/>
<path d="M23.9663 3.87383L24.3855 3.60266L65.5626 75.3177L65.14 75.5889L23.9663 3.87383Z" fill="#73BD31"/>
<path d="M24.2483 3.67658L24.6675 3.40894L65.8647 75.1451L65.422 75.4163L24.2483 3.67658Z" fill="#74BD31"/>
<path d="M24.5266 3.504L24.9726 3.23636L66.1463 74.976L65.7003 75.2437L24.5266 3.504Z" fill="#74BE32"/>
<path d="M24.8315 3.33507L25.2507 3.0639L66.4244 74.8036L66.0052 75.0712L24.8315 3.33507Z" fill="#75BE32"/>
<path d="M25.1101 3.13777L25.5326 2.86661L66.7063 74.6063L66.2872 74.8775L25.1101 3.13777Z" fill="#75BE32"/>
<path d="M25.3917 2.96519L25.8109 2.69754L66.9846 74.4337L66.5654 74.7049L25.3917 2.96519Z" fill="#75BE32"/>
<path d="M25.6699 2.79267L26.0925 2.52502L67.2662 74.2647L66.847 74.5324L25.6699 2.79267Z" fill="#76BE32"/>
<path d="M25.9519 2.59896L26.3711 2.32779L67.5481 74.0675L67.1256 74.3387L25.9519 2.59896Z" fill="#76BE33"/>
<path d="M26.2334 2.42644L26.6761 2.15527L67.8498 73.895L67.4071 74.1661L26.2334 2.42644Z" fill="#76BE33"/>
<path d="M26.5117 2.25385L26.9577 1.98621L68.1314 73.7224L67.7089 73.9935L26.5117 2.25385Z" fill="#77BE33"/>
<path d="M26.8168 2.05662L27.236 1.78897L68.4096 73.5287L67.9905 73.7963L26.8168 2.05662Z" fill="#77BF33"/>
<path d="M27.0952 1.88756L27.5177 1.61639L68.6915 73.3561L68.2723 73.6273L27.0952 1.88756Z" fill="#78BF33"/>
<path d="M27.3768 1.71511L27.796 1.44394L68.9697 73.1836L68.5505 73.4548L27.3768 1.71511Z" fill="#78BF34"/>
<path d="M27.655 1.51786L28.0776 1.25021L69.2513 72.9899L68.8321 73.2575L27.655 1.51786Z" fill="#78BF34"/>
<path d="M27.937 1.3488L28.3562 1.07764L69.5567 72.8173L69.1107 73.085L27.937 1.3488Z" fill="#79BF34"/>
<path d="M28.2186 1.17629L28.6613 0.905121L69.835 72.6448L69.4158 72.916L28.2186 1.17629Z" fill="#79BF34"/>
<path d="M28.5205 0.97906L28.9397 0.732544L70.1167 72.4476L69.6942 72.7187L28.5205 0.97906Z" fill="#7ABF34"/>
<path d="M28.8021 0.806464L29.2213 0.538818L70.395 72.2785L69.9758 72.5462L28.8021 0.806464Z" fill="#7AC035"/>
<path d="M29.0803 0.637409L29.5029 0.366241L70.6766 72.1059L70.2574 72.3736L29.0803 0.637409Z" fill="#7AC035"/>
<path d="M29.3623 0.464953L29.7815 0.193787L70.9552 71.9088L70.536 72.18L29.3623 0.464953Z" fill="#7BC035"/>
<path d="M29.6406 0.267658L30.0632 -0.00350952L71.2603 71.7362L70.8177 72.0074L29.6406 0.267658Z" fill="#7BC035"/>
<path d="M29.9221 0.0951295L30.3648 -0.172516L71.5418 71.5672L71.0958 71.8348L29.9221 0.0951295Z" fill="#7BC035"/>
<path d="M30.204 -0.073925L30.6466 -0.345093L71.8203 71.3699L71.4012 71.6376L30.204 -0.073925Z" fill="#7CC036"/>
<path d="M30.5056 -0.271222L30.9248 -0.542389L72.1019 71.1973L71.6793 71.4685L30.5056 -0.271222Z" fill="#7CC036"/>
<path d="M30.787 -0.443676L31.2062 -0.714844L72.3799 71.0248L71.9607 71.296L30.787 -0.443676Z" fill="#7DC136"/>
<path d="M31.0659 -0.616266L31.4885 -0.883911L72.6622 70.8311L72.2396 71.0988L31.0659 -0.616266Z" fill="#7DC136"/>
<path d="M31.3475 -0.809978L31.7667 -1.08115L72.9404 70.6586L72.5212 70.9297L31.3475 -0.809978Z" fill="#7DC136"/>
<path d="M31.6257 -0.982555L32.0717 -1.25372L73.2455 70.486L72.8028 70.7571L31.6257 -0.982555Z" fill="#7EC137"/>
<path d="M31.9075 -1.15515L32.3501 -1.42279L73.5272 70.2887L73.1046 70.5599L31.9075 -1.15515Z" fill="#7EC137"/>
<path d="M32.2126 -1.35232L32.6318 -1.61996L73.8055 70.1197L73.3863 70.3874L32.2126 -1.35232Z" fill="#7FC137"/>
<path d="M32.4908 -1.52137L32.91 -1.79254L74.0871 69.9472L73.6646 70.2183L32.4908 -1.52137Z" fill="#7FC137"/>
<path d="M32.7728 -1.69389L33.192 -1.96506L74.3657 69.75L73.9465 70.0211L32.7728 -1.69389Z" fill="#7FC137"/>
<path d="M33.0509 -1.89114L33.4734 -2.15878L74.6471 69.5774L74.2246 69.8485L33.0509 -1.89114Z" fill="#80C238"/>
<path d="M33.3325 -2.06371L33.7517 -2.33136L74.9489 69.4083L74.5062 69.676L33.3325 -2.06371Z" fill="#80C238"/>
<path d="M33.6108 -2.23271L34.0568 -2.50388L75.2305 69.2112L74.7879 69.4823L33.6108 -2.23271Z" fill="#80C238"/>
<path d="M33.916 -2.42994L34.3352 -2.70111L75.5123 69.0386L75.0897 69.3098L33.916 -2.42994Z" fill="#81C238"/>
<path d="M34.1943 -2.60253L34.6169 -2.87018L75.7906 68.8695L75.3714 69.1372L34.1943 -2.60253Z" fill="#81C238"/>
<path d="M34.4763 -2.77505L34.8955 -3.04269L76.0726 68.6723L75.65 68.94L34.4763 -2.77505Z" fill="#82C239"/>
<path d="M34.7578 -2.96876L35.177 -3.23993L76.3507 68.4998L75.9315 68.7709L34.7578 -2.96876Z" fill="#82C239"/>
<path d="M35.0361 -3.14128L35.4587 -3.41245L76.6558 68.3273L76.2098 68.5984L35.0361 -3.14128Z" fill="#82C339"/>
<path d="M35.318 -3.31387L35.7606 -3.58151L76.9344 68.1335L76.4917 68.4012L35.318 -3.31387Z" fill="#83C339"/>
<path d="M35.5964 -3.50758L36.0424 -3.77875L77.2161 67.9609L76.797 68.2286L35.5964 -3.50758Z" fill="#83C339"/>
<path d="M35.9011 -3.68016L36.3203 -3.95132L77.494 67.7884L77.0748 68.0595L35.9011 -3.68016Z" fill="#84C33A"/>
<path d="M36.1799 -3.85261L36.6025 -4.12378L77.7762 67.5913L77.357 67.8624L36.1799 -3.85261Z" fill="#84C33A"/>
<path d="M36.4614 -4.04986L36.8806 -4.3175L78.0577 67.4222L77.6351 67.6898L36.4614 -4.04986Z" fill="#84C33A"/>
<path d="M36.743 -4.21898L37.1622 -4.49014L78.3359 67.2495L77.9167 67.5172L36.743 -4.21898Z" fill="#85C33A"/>
<path d="M37.0217 -4.39143L37.4644 -4.6626L78.6414 67.0524L78.1954 67.3236L37.0217 -4.39143Z" fill="#85C43A"/>
<path d="M37.3032 -4.58874L37.7459 -4.85638L78.9196 66.8798L78.5004 67.1509L37.3032 -4.58874Z" fill="#85C43B"/>
<path d="M37.6047 -4.76125L38.0273 -5.0289L79.201 66.7108L78.7818 66.9784L37.6047 -4.76125Z" fill="#86C43B"/>
<path d="M37.8866 -4.93037L38.3058 -5.20154L79.4795 66.5135L79.0603 66.7847L37.8866 -4.93037Z" fill="#86C43B"/>
<path d="M38.165 -5.12761L38.5876 -5.39877L79.7613 66.3409L79.3421 66.6121L38.165 -5.12761Z" fill="#87C43B"/>
<path d="M38.4467 -5.30007L38.8658 -5.56772L80.0429 66.1684L79.6204 66.4396L38.4467 -5.30007Z" fill="#87C43B"/>
<path d="M38.7284 -5.47265L39.1476 -5.7403L80.3448 65.9747L79.9021 66.2424L38.7284 -5.47265Z" fill="#87C43C"/>
<path d="M39.0065 -5.66636L39.4491 -5.93753L80.6262 65.8022L80.1802 66.0733L39.0065 -5.66636Z" fill="#88C43C"/>
<path d="M39.312 -5.83894L39.7312 -6.11011L80.9049 65.6296L80.4857 65.9008L39.312 -5.83894Z" fill="#88C53C"/>
<path d="M39.5903 -6.01153L40.0129 -6.27917L81.1866 65.4323L80.764 65.7035L39.5903 -6.01153Z" fill="#89C53C"/>
<path d="M39.8718 -6.2087L40.291 -6.47635L81.4647 65.2633L81.0455 65.531L39.8718 -6.2087Z" fill="#89C53C"/>
<path d="M40.1501 -6.37776L40.5727 -6.64893L81.7464 65.0908L81.3272 65.3619L40.1501 -6.37776Z" fill="#89C53D"/>
<path d="M40.4321 -6.55027L40.8513 -6.82144L82.0518 64.8936L81.6058 65.1648L40.4321 -6.55027Z" fill="#8AC53D"/>
<path d="M40.7135 -6.74752L41.1562 -7.01517L82.3299 64.7245L81.8872 64.9922L40.7135 -6.74752Z" fill="#8AC53D"/>
<path d="M40.9918 -6.91652L41.4345 -7.18768L82.6115 64.552L82.189 64.8196L40.9918 -6.91652Z" fill="#8AC53D"/>
<path d="M41.2971 -7.08909L41.7163 -7.36026L82.89 64.3548L82.4708 64.6259L41.2971 -7.08909Z" fill="#8BC63D"/>
<path d="M41.5754 -7.28633L41.998 -7.5575L83.1717 64.1822L82.7491 64.4534L41.5754 -7.28633Z" fill="#8BC63E"/>
<path d="M41.8571 -7.45892L42.2762 -7.72656L83.4499 64.0131L83.0308 64.2808L41.8571 -7.45892Z" fill="#8CC63E"/>
<path d="M42.1356 -7.62793L52.414 -14.1536L93.5877 57.5861L83.3127 64.0836L42.1356 -7.62793Z" fill="#8CC63E"/>
</g>
</g>
<defs>
<filter id="filter0_d_643_3293" x="0" y="0" width="78" height="78" filterUnits="userSpaceOnUse" color-interpolation-filters="sRGB">
<feFlood flood-opacity="0" result="BackgroundImageFix"/>
<feColorMatrix in="SourceAlpha" type="matrix" values="0 0 0 0 0 0 0 0 0 0 0 0 0 0 0 0 0 0 127 0" result="hardAlpha"/>
<feOffset dy="4"/>
<feGaussianBlur stdDeviation="2"/>
<feComposite in2="hardAlpha" operator="out"/>
<feColorMatrix type="matrix" values="0 0 0 0 0 0 0 0 0 0 0 0 0 0 0 0 0 0 0.25 0"/>
<feBlend mode="normal" in2="BackgroundImageFix" result="effect1_dropShadow_643_3293"/>
<feBlend mode="normal" in="SourceGraphic" in2="effect1_dropShadow_643_3293" result="shape"/>
</filter>
</defs>
</svg>
