<svg width="24" height="17" viewBox="0 0 24 17" fill="none" xmlns="http://www.w3.org/2000/svg">
<g clip-path="url(#clip0_643_379)">
<path d="M12.0006 16.9862C8.80535 16.9862 5.60939 16.956 2.41493 16.9998C0.922188 17.0201 -0.0148029 15.9711 0.000176982 14.5667C0.0443676 10.505 0.0159058 6.4425 0.0159058 2.38004C0.0159058 0.854069 0.860771 0.00127636 2.37823 0.000521674C8.79411 -0.000987693 15.2092 -0.000987693 21.6251 0.000521674C23.1433 0.000521674 23.9859 0.853314 23.9859 2.38079C23.9859 6.45533 23.9612 10.5306 24.0002 14.6052C24.0129 15.9485 23.0969 17.0164 21.6244 16.9983C18.4172 16.959 15.2092 16.9862 12.0013 16.9862H12.0006ZM2.4741 1.41253C2.58495 1.53781 2.64562 1.61404 2.71303 1.68271C5.58243 4.58522 8.45182 7.48698 11.3227 10.388C11.7751 10.8453 12.2275 10.8461 12.6814 10.3872C15.5523 7.48623 18.4217 4.58447 21.2903 1.68196C21.3615 1.61026 21.4199 1.52649 21.5128 1.41329H2.4741V1.41253ZM8.57391 9.61821C6.54938 11.6309 4.5608 13.6082 2.60443 15.553H21.512C19.4927 13.5388 17.5079 11.5593 15.4976 9.55406C14.9066 10.1495 14.2835 10.7797 13.6581 11.4076C12.6627 12.4083 11.3354 12.4053 10.3378 11.4C9.72137 10.7789 9.10644 10.1563 8.57391 9.61821ZM1.46521 2.53249V14.4218C3.43581 12.4551 5.42439 10.4702 7.41596 8.48241C5.43263 6.4991 3.4463 4.51277 1.46521 2.53173V2.53249ZM22.5441 2.59437C20.584 4.55126 18.5909 6.54136 16.6376 8.49071C18.6082 10.468 20.5878 12.4558 22.5441 14.4188V2.59437Z" fill="white"/>
</g>
<defs>
<clipPath id="clip0_643_379">
<rect width="24" height="17" fill="white"/>
</clipPath>
</defs>
</svg>
