<svg width="21" height="20" viewBox="0 0 21 20" fill="none" xmlns="http://www.w3.org/2000/svg">
<path fill-rule="evenodd" clip-rule="evenodd" d="M6.22895 11.3229C5.99547 11.4765 5.81454 11.3564 5.66213 11.1549V11.1541C5.03226 10.3196 4.62385 9.39405 4.44367 8.37758C4.39625 8.10882 4.3729 7.83594 4.34955 7.56319C4.33889 7.43867 4.32824 7.31418 4.3153 7.19012C4.30554 4.21419 6.47369 1.24481 9.99544 0.615428C13.858 -0.0743473 17.3227 2.42208 18.0232 5.87314C18.391 7.68271 18.0457 9.35403 17.0247 10.9017C16.9909 10.9526 16.9556 11.0028 16.9188 11.0515C16.7739 11.2422 16.5907 11.328 16.3738 11.1789C16.1621 11.0326 16.1651 10.8354 16.3047 10.6375C16.7604 9.99215 17.0922 9.29437 17.2642 8.52892C17.9834 5.32525 16.0232 2.23218 12.7552 1.40998C9.29725 0.540484 5.74697 2.79462 5.1794 6.22021C4.91139 7.83696 5.25898 9.31765 6.22219 10.6623C6.23121 10.6752 6.24052 10.6877 6.24976 10.7002L6.26573 10.7219C6.41964 10.9322 6.48345 11.1556 6.22895 11.3229ZM18.2446 11.2305C19.1282 10.7882 20.0546 11.0268 20.4743 11.7995L20.4758 11.7981C20.8925 12.5664 20.5982 13.4323 19.7476 13.8936C18.5336 14.5518 17.3184 15.2081 16.1031 15.8644L16.1024 15.8648C15.0407 16.4382 13.9789 17.0116 12.918 17.5862C12.3287 17.9056 11.7093 18.0781 11.0254 18.0621C10.4228 18.0473 9.81984 18.0507 9.21702 18.0541H9.21692H9.21681H9.21673H9.21665C8.95666 18.0555 8.69671 18.057 8.43682 18.057C8.18528 18.0572 7.93373 18.0579 7.68221 18.0586L7.67932 18.0586H7.67926H7.6792C7.00611 18.0604 6.33314 18.0622 5.66056 18.0548C4.9984 18.0475 4.43985 18.252 3.9879 18.7286C3.77694 18.9519 3.55397 19.1651 3.32874 19.3747C3.17259 19.5202 2.96388 19.5588 2.84151 19.3805C2.75817 19.2597 2.71388 18.9912 2.79046 18.909C2.83158 18.8648 2.87261 18.8205 2.91366 18.776L2.91384 18.7758C3.52189 18.118 4.13622 17.4534 5.14179 17.3614C5.31522 17.3454 5.49014 17.3316 5.66431 17.3316L6.6297 17.3302H6.62975H6.62981C8.109 17.3278 9.58809 17.3255 11.0667 17.3345C11.5817 17.3381 12.0502 17.2195 12.4954 16.9787C14.7934 15.7352 17.0914 14.4924 19.3925 13.2548C19.7461 13.0641 19.942 12.8 19.8917 12.402C19.8497 12.0673 19.6432 11.8214 19.3106 11.7704C19.0839 11.7355 18.8084 11.7799 18.6012 11.8803C17.7003 12.3169 16.8074 12.7689 15.9146 13.221L15.9144 13.2211L15.9142 13.2211L15.9134 13.2216L15.9125 13.222C15.6454 13.3572 15.3783 13.4925 15.111 13.6273C15.0887 13.6386 15.0661 13.6504 15.0433 13.6622C14.8044 13.787 14.5434 13.9232 14.37 13.6004C14.1896 13.265 14.4839 13.1181 14.746 12.9872L14.7581 12.9812C15.3396 12.6901 15.9205 12.3979 16.5015 12.1058C17.0823 11.8137 17.6632 11.5216 18.2446 11.2305ZM5.91205 12.9317C7.376 13.0736 8.84671 13.1645 10.3159 13.2489C10.7018 13.271 11.0891 13.2649 11.4765 13.2589H11.4765H11.4766C11.7274 13.2549 11.9783 13.251 12.2288 13.2547C12.7724 13.2635 13.1763 13.6054 13.2153 14.0638C13.2611 14.6103 12.867 15.0141 12.2468 15.0199C11.411 15.0272 10.5747 15.0259 9.73862 15.0246H9.73854C9.41145 15.0241 9.08438 15.0236 8.75737 15.0236C8.48485 15.0236 8.2296 15.0701 8.23711 15.4005C8.24386 15.7068 8.48485 15.7526 8.74461 15.7512C9.1736 15.7496 9.60222 15.7499 10.031 15.7502H10.0311L10.5457 15.7504V15.7352C10.7464 15.7352 10.9473 15.7384 11.1482 15.7415H11.1483C11.5981 15.7487 12.048 15.7558 12.4953 15.7272C13.5119 15.6617 14.198 14.6437 13.897 13.7051C13.6552 12.9521 13.0411 12.522 12.168 12.5264L11.8181 12.5284C9.98511 12.5393 8.15307 12.5502 6.33697 12.2375C4.94358 11.9974 3.79419 12.4238 2.81522 13.401C2.35299 13.862 1.86506 14.2988 1.37728 14.7355L1.37724 14.7356C1.15756 14.9322 0.937901 15.1289 0.720633 15.3277C0.704248 15.3427 0.684641 15.3573 0.664983 15.372L0.664973 15.372C0.618885 15.4064 0.572519 15.4409 0.56673 15.4812C0.54832 15.6045 0.547094 15.7301 0.545869 15.8555C0.545395 15.904 0.544922 15.9525 0.543457 16.0007C0.593489 16.002 0.644044 16.0056 0.69462 16.0092H0.694629C0.815563 16.0177 0.936622 16.0262 1.05096 16.0036C1.11811 15.9907 1.17543 15.9283 1.2323 15.8664L1.23231 15.8664C1.25555 15.8411 1.27872 15.8158 1.30246 15.7941C1.54567 15.5726 1.78814 15.3502 2.03061 15.1278L2.0309 15.1275C2.59668 14.6086 3.1625 14.0897 3.73788 13.5814C4.35049 13.0401 5.07121 12.8495 5.91129 12.9309L5.91205 12.9317ZM10.632 7.91774C10.7041 8.24589 10.9601 8.4227 11.3182 8.37904H11.319C11.6057 8.34485 11.8107 8.21388 11.843 7.9563C11.855 7.62524 11.6305 7.47535 11.2844 7.39313C11.2749 7.39088 11.2654 7.38863 11.2558 7.38638C10.8751 7.29655 10.4551 7.19746 10.1666 6.96821C9.40305 6.36283 9.57046 5.26269 10.4331 4.76864C10.518 4.72015 10.5839 4.64199 10.6502 4.5633C10.7022 4.50149 10.7546 4.43935 10.8167 4.39101C10.8239 4.38544 10.8312 4.37978 10.8385 4.37407C10.9692 4.27236 11.1236 4.15224 11.2679 4.15017C11.3775 4.14898 11.4943 4.25309 11.6006 4.34797C11.6239 4.36874 11.6467 4.38906 11.6688 4.40774C11.7191 4.45044 11.7624 4.50271 11.8053 4.55467C11.8649 4.62668 11.9239 4.69807 12.0006 4.74245C12.4225 4.98692 12.6988 5.32162 12.7844 5.79312C12.8445 6.12345 12.6786 6.40431 12.3895 6.42977C12.0757 6.45742 11.9241 6.27407 11.8542 5.98957C11.7476 5.55155 11.3272 5.33254 10.9526 5.55591C10.7979 5.64832 10.6253 5.92918 10.6681 6.06088C10.7229 6.22823 10.9706 6.36866 11.1666 6.45379C11.3066 6.51479 11.46 6.55585 11.6124 6.59665C11.8471 6.65949 12.0797 6.72175 12.2581 6.85543C13.0907 7.47899 12.9383 8.61406 12.0156 9.11975C11.934 9.16475 11.872 9.24126 11.8094 9.31851C11.7627 9.37615 11.7156 9.43421 11.6598 9.47992C11.6467 9.4907 11.6332 9.50194 11.6195 9.51342C11.5034 9.61044 11.3671 9.72435 11.2476 9.71785C11.1123 9.71013 10.9751 9.59895 10.8523 9.49938C10.8362 9.4863 10.8203 9.47342 10.8047 9.461C10.7501 9.41755 10.7047 9.36178 10.6596 9.30634C10.6042 9.23829 10.5493 9.17073 10.4781 9.12703C10.0802 8.88255 9.79193 8.57623 9.7116 8.10837C9.65079 7.75475 9.76641 7.51828 10.0569 7.45061C10.34 7.3844 10.5524 7.55757 10.632 7.91774Z" fill="white"/>
</svg>
