<svg width="18" height="14" viewBox="0 0 18 14" fill="none" xmlns="http://www.w3.org/2000/svg">
<g clip-path="url(#clip0_0_947)">
<path d="M16.6794 6.25747C14.7528 6.25747 12.8252 6.25747 10.8986 6.25747C10.3818 6.25747 10.151 6.5 10.1499 7.04368C10.1499 7.41264 10.1499 7.78161 10.1499 8.14138V8.44712C9.97326 8.39885 9.79772 8.35057 9.62218 8.3023C9.0869 8.15632 8.53429 8.0046 7.99467 7.84942C7.6501 7.75057 7.38138 7.84942 7.17225 8.15517C6.95012 8.47931 6.72257 8.79425 6.48094 9.12758C6.40617 9.23103 6.33141 9.33448 6.25556 9.44023C6.17862 9.33333 6.10278 9.22873 6.02801 9.12529C5.78638 8.79195 5.55883 8.47701 5.33886 8.15172C5.1254 7.83678 4.84909 7.73333 4.49369 7.83678C4.2358 7.91149 3.97683 7.98046 3.71786 8.05057C3.41446 8.13218 3.10131 8.21609 2.79466 8.30689C1.39795 8.72069 0.423828 10.0805 0.423828 11.6126V13.2287C0.423828 13.7747 0.630788 13.9977 1.1379 13.9977C6.14178 13.9988 11.1457 14 16.1496 14H16.6946C17.1919 14 17.4227 13.754 17.4238 13.2276C17.4238 11.1655 17.4238 9.1023 17.4238 7.04023C17.4238 6.49195 17.2006 6.25747 16.6794 6.25747ZM12.1967 9.08046C12.2011 9.26666 12.2531 9.44483 12.3354 9.55862C12.5272 9.82184 12.8479 9.87471 13.0982 9.6862C13.5685 9.33103 13.9868 9.32988 14.496 9.68391C14.6878 9.81724 14.9013 9.83448 15.0801 9.73333C15.2827 9.61839 15.4052 9.37701 15.4084 9.08735C15.4117 8.71379 15.4106 8.34023 15.4106 7.95517C15.4106 7.82299 15.4106 7.6885 15.4106 7.55287H16.2222V12.6954H11.3841V7.55402H12.1924C12.1924 7.66437 12.1924 7.77586 12.1924 7.8862C12.1913 8.27816 12.1891 8.68391 12.1989 9.08161L12.1967 9.08046ZM14.1948 8.10115C14.0561 8.02988 13.9207 7.9954 13.7874 7.9954C13.6541 7.9954 13.5295 8.02873 13.4027 8.0977V7.63103H14.1948V8.1023V8.10115ZM10.1445 12.0908C10.1466 12.2908 10.1499 12.4908 10.1499 12.692H1.56157C1.56915 12.5494 1.57349 12.4069 1.57782 12.2678C1.59082 11.8701 1.60274 11.4943 1.67859 11.131C1.85305 10.3034 2.37316 9.75517 3.22375 9.49885C3.41988 9.44023 3.62142 9.38735 3.81646 9.33678C4.01258 9.28506 4.21629 9.23218 4.41567 9.17241C4.51319 9.14368 4.5522 9.16092 4.62588 9.26552C4.87835 9.62873 5.14057 9.99195 5.39413 10.3448C5.49706 10.4885 5.60109 10.6322 5.70402 10.7759C5.87414 11.0138 6.05727 11.1356 6.24797 11.1379C6.44085 11.1425 6.62072 11.023 6.79409 10.7908C7.16358 10.2943 7.52766 9.7862 7.87548 9.28046C7.947 9.17586 7.99251 9.15862 8.10736 9.1931C8.35767 9.26781 8.61339 9.33678 8.86152 9.40345C9.03273 9.44942 9.20501 9.4954 9.37621 9.54368C9.4629 9.56781 9.54633 9.6046 9.63519 9.64253L9.70778 9.67356C10.0589 9.82069 10.1867 10.0276 10.164 10.4149C10.1315 10.9713 10.138 11.5402 10.1455 12.0908H10.1445Z" fill="#28C76F"/>
<path d="M6.22774 7.25632C6.22774 7.25632 6.23749 7.25632 6.24291 7.25632C7.15852 7.25632 8.01995 6.88506 8.669 6.20805C9.32239 5.52759 9.68322 4.61954 9.68647 3.65057C9.68972 2.67471 9.33539 1.75747 8.68959 1.06897C8.04595 0.381609 7.18669 0.00229885 6.27108 0H6.26241C4.37918 0 2.84161 1.6092 2.83402 3.5908C2.82535 5.63793 4.31633 7.24828 6.22665 7.25632H6.22774ZM6.26133 1.27931H6.26349C7.49767 1.27931 8.46746 2.3069 8.47179 3.61494C8.47396 4.25517 8.24641 4.85172 7.83141 5.2931C7.41857 5.73333 6.86054 5.97586 6.26241 5.97586H6.26133C5.65995 5.97586 5.09758 5.72989 4.67608 5.28276C4.25891 4.84023 4.03027 4.25172 4.03027 3.62529C4.03027 2.9954 4.26216 2.40575 4.68366 1.96322C5.10408 1.52069 5.66537 1.27816 6.26349 1.27816L6.26133 1.27931Z" fill="#28C76F"/>
</g>
<defs>
<clipPath id="clip0_0_947">
<rect width="17" height="14" fill="white" transform="translate(0.423828)"/>
</clipPath>
</defs>
</svg>
